0
SECTION
2
HEADER
9
$INSUNITS
70
1
9
$ACADVER
1
AC1014
9
$HANDSEED
5
FFFF
0
ENDSEC
0
SECTION
2
TABLES
0
TABLE
2
VPORT
5
8
100
AcDbSymbolTable
0
ENDTAB
0
TABLE
2
LTYPE
5
5
100
AcDbSymbolTable
0
LTYPE
5
14
100
AcDbSymbolTableRecord
100
AcDbLinetypeTableRecord
2
BYBLOCK
70
0
0
LTYPE
5
15
100
AcDbSymbolTableRecord
100
AcDbLinetypeTableRecord
2
BYLAYER
70
0
0
ENDTAB
0
TABLE
2
LAYER
5
2
100
AcDbSymbolTable
70
2
0
LAYER
5
50
100
AcDbSymbolTableRecord
100
AcDbLayerTableRecord
2
0
70
0
6
CONTINUOUS
0
ENDTAB
0
TABLE
2
STYLE
5
3
100
AcDbSymbolTable
70
1
0
STYLE
5
11
100
AcDbSymbolTableRecord
100
AcDbTextStyleTableRecord
2
STANDARD
70
0
0
ENDTAB
0
TABLE
2
VIEW
5
6
100
AcDbSymbolTable
70
0
0
ENDTAB
0
TABLE
2
UCS
5
7
100
AcDbSymbolTable
70
0
0
ENDTAB
0
TABLE
2
APPID
5
9
100
AcDbSymbolTable
70
2
0
APPID
5
12
100
AcDbSymbolTableRecord
100
AcDbRegAppTableRecord
2
ACAD
70
0
0
ENDTAB
0
TABLE
2
DIMSTYLE
5
A
100
AcDbSymbolTable
70
1
0
ENDTAB
0
TABLE
2
BLOCK_RECORD
5
1
100
AcDbSymbolTable
70
1
0
BLOCK_RECORD
5
1F
100
AcDbSymbolTableRecord
100
AcDbBlockTableRecord
2
*MODEL_SPACE
0
BLOCK_RECORD
5
1B
100
AcDbSymbolTableRecord
100
AcDbBlockTableRecord
2
*PAPER_SPACE
0
ENDTAB
0
ENDSEC
0
SECTION
2
BLOCKS
0
BLOCK
5
20
100
AcDbEntity
100
AcDbBlockBegin
2
*MODEL_SPACE
0
ENDBLK
5
21
100
AcDbEntity
100
AcDbBlockEnd
0
BLOCK
5
1C
100
AcDbEntity
100
AcDbBlockBegin
2
*PAPER_SPACE
0
ENDBLK
5
1D
100
AcDbEntity
100
AcDbBlockEnd
0
ENDSEC
0
SECTION
2
ENTITIES
0
CIRCLE
5
100
100
AcDbEntity
8
0
100
AcDbCircle
10
32.93746682407923
20
-18.999702362054681
30
0
40
0.1249999999999982
210
0
220
0
230
1
0
CIRCLE
5
101
100
AcDbEntity
8
0
100
AcDbCircle
10
35
20
-21.062202362054677
30
0
40
2.2500000000000013
210
0
220
0
230
1
0
CIRCLE
5
102
100
AcDbEntity
8
0
100
AcDbCircle
10
37.06246682407923
20
-18.999702362054681
30
0
40
0.1250000000000038
210
0
220
0
230
1
0
CIRCLE
5
103
100
AcDbEntity
8
0
100
AcDbCircle
10
37.06246682407923
20
-23.124702362054677
30
0
40
0.1250000000000038
210
0
220
0
230
1
0
CIRCLE
5
104
100
AcDbEntity
8
0
100
AcDbCircle
10
32.93746682407923
20
-23.124702362054677
30
0
40
0.1249999999999982
210
0
220
0
230
1
0
CIRCLE
5
105
100
AcDbEntity
8
0
100
AcDbCircle
10
32.93746682407923
20
-30.999702362054673
30
0
40
0.1249999999999982
210
0
220
0
230
1
0
CIRCLE
5
106
100
AcDbEntity
8
0
100
AcDbCircle
10
37.06246682407923
20
-26.874702362054677
30
0
40
0.1250000000000038
210
0
220
0
230
1
0
CIRCLE
5
107
100
AcDbEntity
8
0
100
AcDbCircle
10
37.06246682407923
20
-30.999702362054673
30
0
40
0.1250000000000038
210
0
220
0
230
1
0
CIRCLE
5
108
100
AcDbEntity
8
0
100
AcDbCircle
10
32.93746682407923
20
-26.874702362054677
30
0
40
0.1249999999999982
210
0
220
0
230
1
0
CIRCLE
5
109
100
AcDbEntity
8
0
100
AcDbCircle
10
35
20
-28.937202362054677
30
0
40
2.2500000000000013
210
0
220
0
230
1
0
LWPOLYLINE
5
110
100
AcDbEntity
8
0
100
AcDbPolyline
90
8
70
1
43
0.0
10
34.593749999999993
20
-25.280952362054677
42
-0.41421356237304263
10
34.46875
20
-25.155952362054677
10
34.468750000000007
20
-24.805952362054676
42
-0.41421356237310158
10
34.593750000000007
20
-24.680952362054672
10
35.443749999999994
20
-24.680952362054672
42
-0.41421356237309503
10
35.568750000000001
20
-24.805952362054676
10
35.568750000000001
20
-25.155952362054681
42
-0.41421356237308193
10
35.443750000000009
20
-25.280952362054677
0
LINE
5
111
100
AcDbEntity
8
0
100
AcDbLine
10
35.299999999999997
20
-34
30
0
11
47.000000000000007
21
-34
31
0
0
LINE
5
112
100
AcDbEntity
8
0
100
AcDbLine
10
47.000000000000007
20
-34
30
0
11
47.000000000000007
21
-32.99999950438972
31
0
0
SPLINE
5
113
100
AcDbEntity
8
0
100
AcDbSpline
70
4
71
5
72
16
73
10
74
0
42
0.000000001
43
0.0000000001
44
0.0000000001
40
-1
40
-1
40
-1
40
-1
40
-1
40
-1
40
-0.89999999999999991
40
-0.79999999999999993
40
-0.69999999999999996
40
-0.59999999999999998
40
-0.50000000387338983
40
-0.50000000387338983
40
-0.50000000387338983
40
-0.50000000387338983
40
-0.50000000387338983
40
-0.50000000387338983
41
1
41
1
41
1
41
1
41
1
41
1
41
1
41
1
41
1
41
1
10
47.000000000000007
20
-32.99999950438972
30
0
10
46.544914333925597
20
-32.359999523971268
30
0
10
45.674485416537685
20
-31.079999562262696
30
0
10
44.488065630892706
20
-29.15999961708491
30
0
10
43.14857425750521
20
-26.59999968486515
30
0
10
41.905631568379981
20
-23.399999784922731
30
0
10
41.287259210008664
20
-20.839999861688657
30
0
10
41.052228870862848
20
-18.91999992045071
30
0
10
40.99999990735688
20
-17.63999996560149
30
0
10
40.999999907158404
20
-17
30
0
0
LINE
5
114
100
AcDbEntity
8
0
100
AcDbLine
10
40.999999907158411
20
-17
30
0
11
28.999999907158408
21
-17.000000000031999
31
0
0
SPLINE
5
115
100
AcDbEntity
8
0
100
AcDbSpline
70
4
71
5
72
16
73
10
74
0
42
0.000000001
43
0.0000000001
44
0.0000000001
40
0.50000000310484216
40
0.50000000310484216
40
0.50000000310484216
40
0.50000000310484216
40
0.50000000310484216
40
0.50000000310484216
40
0.59999999999999998
40
0.69999999999999996
40
0.79999999999999993
40
0.89999999999999991
40
1
40
1
40
1
40
1
40
1
40
1
41
1
41
1
41
1
41
1
41
1
41
1
41
1
41
1
41
1
41
1
10
28.999999907158408
20
-17.000000000031999
30
0
10
28.99999990158722
20
-17.63999997055258
30
0
10
28.947770929657345
20
-18.919999930106965
30
0
10
28.712740585745134
20
-20.83999987530024
30
0
10
28.094368237069293
20
-23.399999800916518
30
0
10
26.851425585496891
20
-26.599999700677088
30
0
10
25.511934263404701
20
-29.159999627398491
30
0
10
24.325514526631903
20
-31.07999956770534
30
0
10
23.455085646372996
20
-32.359999525839925
30
0
10
23
20
-32.99999950438972
30
0
0
LINE
5
116
100
AcDbEntity
8
0
100
AcDbLine
10
23
20
-32.99999950438972
30
0
11
23
21
-34
31
0
0
LINE
5
117
100
AcDbEntity
8
0
100
AcDbLine
10
23
20
-34
30
0
11
34.699999999999996
21
-34
31
0
0
LINE
5
118
100
AcDbEntity
8
0
100
AcDbLine
10
34.699999999999996
20
-34
30
0
11
34.699999999999996
21
-33.524999999999991
31
0
0
ARC
5
119
100
AcDbEntity
8
0
100
AcDbCircle
10
34.824999999999989
20
-33.524999999999999
30
0
40
0.1249999999999982
210
0
220
-0
230
1
100
AcDbArc
50
89.999999999996746
51
180
0
LINE
5
120
100
AcDbEntity
8
0
100
AcDbLine
10
34.824999999999996
20
-33.400000000000006
30
0
11
35.175000000000004
21
-33.399999999999999
31
0
0
ARC
5
121
100
AcDbEntity
8
0
100
AcDbCircle
10
35.175000000000004
20
-33.524999999999999
30
0
40
0.1250000000000038
210
0
220
-0
230
1
100
AcDbArc
50
0
51
90
0
LINE
5
122
100
AcDbEntity
8
0
100
AcDbLine
10
35.300000000000004
20
-33.524999999999991
30
0
11
35.299999999999997
21
-34
31
0
0
ENDSEC
0
SECTION
2
OBJECTS
0
DICTIONARY
5
C
100
AcDbDictionary
3
ACAD_GROUP
350
D
3
ACAD_MLINESTYLE
350
17
0
DICTIONARY
5
D
100
AcDbDictionary
0
DICTIONARY
5
1A
330
C
100
AcDbDictionary
0
DICTIONARY
5
17
100
AcDbDictionary
0
ENDSEC
0
EOF
