0
SECTION
2
HEADER
9
$INSUNITS
70
1
9
$ACADVER
1
AC1014
9
$HANDSEED
5
FFFF
0
ENDSEC
0
SECTION
2
TABLES
0
TABLE
2
VPORT
5
8
100
AcDbSymbolTable
0
ENDTAB
0
TABLE
2
LTYPE
5
5
100
AcDbSymbolTable
0
LTYPE
5
14
100
AcDbSymbolTableRecord
100
AcDbLinetypeTableRecord
2
BYBLOCK
70
0
0
LTYPE
5
15
100
AcDbSymbolTableRecord
100
AcDbLinetypeTableRecord
2
BYLAYER
70
0
0
ENDTAB
0
TABLE
2
LAYER
5
2
100
AcDbSymbolTable
70
2
0
LAYER
5
50
100
AcDbSymbolTableRecord
100
AcDbLayerTableRecord
2
0
70
0
6
CONTINUOUS
0
ENDTAB
0
TABLE
2
STYLE
5
3
100
AcDbSymbolTable
70
1
0
STYLE
5
11
100
AcDbSymbolTableRecord
100
AcDbTextStyleTableRecord
2
STANDARD
70
0
0
ENDTAB
0
TABLE
2
VIEW
5
6
100
AcDbSymbolTable
70
0
0
ENDTAB
0
TABLE
2
UCS
5
7
100
AcDbSymbolTable
70
0
0
ENDTAB
0
TABLE
2
APPID
5
9
100
AcDbSymbolTable
70
2
0
APPID
5
12
100
AcDbSymbolTableRecord
100
AcDbRegAppTableRecord
2
ACAD
70
0
0
ENDTAB
0
TABLE
2
DIMSTYLE
5
A
100
AcDbSymbolTable
70
1
0
ENDTAB
0
TABLE
2
BLOCK_RECORD
5
1
100
AcDbSymbolTable
70
1
0
BLOCK_RECORD
5
1F
100
AcDbSymbolTableRecord
100
AcDbBlockTableRecord
2
*MODEL_SPACE
0
BLOCK_RECORD
5
1B
100
AcDbSymbolTableRecord
100
AcDbBlockTableRecord
2
*PAPER_SPACE
0
ENDTAB
0
ENDSEC
0
SECTION
2
BLOCKS
0
BLOCK
5
20
100
AcDbEntity
100
AcDbBlockBegin
2
*MODEL_SPACE
0
ENDBLK
5
21
100
AcDbEntity
100
AcDbBlockEnd
0
BLOCK
5
1C
100
AcDbEntity
100
AcDbBlockBegin
2
*PAPER_SPACE
0
ENDBLK
5
1D
100
AcDbEntity
100
AcDbBlockEnd
0
ENDSEC
0
SECTION
2
ENTITIES
0
LWPOLYLINE
5
100
100
AcDbEntity
8
0
100
AcDbPolyline
90
4
70
1
43
0.0
10
-30.95001146474641
20
-45.875320004102235
10
-30.95001146474641
20
-47.125320004102242
42
0.99999999999999989
10
-30.700011464746403
20
-47.125320004102242
10
-30.700011464746414
20
-45.875320004102235
42
0.99999999999999989
0
LWPOLYLINE
5
101
100
AcDbEntity
8
0
100
AcDbPolyline
90
4
70
1
43
0.0
10
-23.049988700456996
20
-47.125320004102214
42
-0.99999999999999989
10
-23.299988700457021
20
-47.125320004102257
10
-23.299988700457003
20
-45.875320004102235
42
-0.99999999999999989
10
-23.049988700457
20
-45.875320004102235
0
CIRCLE
5
102
100
AcDbEntity
8
0
100
AcDbCircle
10
-31.625000262823622
20
-43.500000443045536
30
0
40
0.1250000000000038
210
0
220
-0
230
1
0
CIRCLE
5
103
100
AcDbEntity
8
0
100
AcDbCircle
10
-22.374988700456999
20
-49.500000443023254
30
0
40
0.1249999999999982
210
0
220
-0
230
1
0
CIRCLE
5
104
100
AcDbEntity
8
0
100
AcDbCircle
10
-22.424981724598819
20
-43.503319673697874
30
0
40
0.12500000000000097
210
0
220
-0
230
1
0
LWPOLYLINE
5
105
100
AcDbEntity
8
0
100
AcDbPolyline
90
4
70
1
43
0.0
10
-30.70001146474641
20
-42.125320004102214
42
-0.99999999999999989
10
-30.950011464746417
20
-42.125320004102271
10
-30.9500114647464
20
-40.875320004102235
42
-0.99999999999999989
10
-30.700011464746414
20
-40.875320004102235
0
LWPOLYLINE
5
106
100
AcDbEntity
8
0
100
AcDbPolyline
90
4
70
1
43
0.0
10
-25.125007238681775
20
-39.375000773449919
42
-0.99999999999999989
10
-25.125007238681825
20
-39.125000773449898
10
-23.875007238681803
20
-39.125000773449919
42
-0.99999999999999989
10
-23.875007238681803
20
-39.375000773449919
0
LWPOLYLINE
5
107
100
AcDbEntity
8
0
100
AcDbPolyline
90
4
70
1
43
0.0
10
-30.125007238681778
20
-39.375000773449926
42
-0.99999999999999989
10
-30.125007238681825
20
-39.125000773449898
10
-28.875007238681803
20
-39.125000773449919
42
-0.99999999999999989
10
-28.875007238681803
20
-39.375000773449919
0
CIRCLE
5
108
100
AcDbEntity
8
0
100
AcDbCircle
10
-31.624988700456996
20
-49.500000443023254
30
0
40
0.1249999999999982
210
0
220
-0
230
1
0
LWPOLYLINE
5
109
100
AcDbEntity
8
0
100
AcDbPolyline
90
4
70
1
43
0.0
10
-27.625007238681807
20
-39.375000773449919
10
-26.375007238681803
20
-39.375000773449919
42
0.99999999999999989
10
-26.375007238681803
20
-39.125000773449919
10
-27.625007238681807
20
-39.125000773449919
42
0.99999999999999989
0
LWPOLYLINE
5
110
100
AcDbEntity
8
0
100
AcDbPolyline
90
4
70
1
43
0.0
10
-28.875007238681803
20
-49.500000773449919
10
-30.125007238681807
20
-49.500000773449912
42
0.99999999999999989
10
-30.125007238681807
20
-49.750000773449912
10
-28.875007238681803
20
-49.750000773449912
42
0.99999999999999989
0
LWPOLYLINE
5
111
100
AcDbEntity
8
0
100
AcDbPolyline
90
4
70
1
43
0.0
10
-23.875007238681803
20
-49.500000773449919
10
-25.125007238681807
20
-49.500000773449912
42
0.99999999999999989
10
-25.125007238681807
20
-49.750000773449912
10
-23.875007238681803
20
-49.750000773449912
42
0.99999999999999989
0
LWPOLYLINE
5
112
100
AcDbEntity
8
0
100
AcDbPolyline
90
4
70
1
43
0.0
10
-23.049988700456996
20
-42.125320004102242
42
-0.99999999999999989
10
-23.299988700457003
20
-42.125320004102242
10
-23.299988700456996
20
-40.875320004102235
42
-0.99999999999999989
10
-23.049988700457
20
-40.875320004102235
0
LWPOLYLINE
5
113
100
AcDbEntity
8
0
100
AcDbPolyline
90
4
70
1
43
0.0
10
-27.625007238681782
20
-49.750000773449926
42
-0.99999999999999989
10
-27.625007238681825
20
-49.500000773449898
10
-26.375007238681803
20
-49.500000773449919
42
-0.99999999999999989
10
-26.375007238681803
20
-49.750000773449912
0
LWPOLYLINE
5
114
100
AcDbEntity
8
0
100
AcDbPolyline
90
4
70
1
43
0.0
10
-32.500011464746407
20
-38.500000443045536
10
-21.499988700457003
20
-38.500000443045536
10
-21.499988700457003
20
-54.500000443045536
10
-32.500011464746407
20
-54.500000443045536
0
ENDSEC
0
SECTION
2
OBJECTS
0
DICTIONARY
5
C
100
AcDbDictionary
3
ACAD_GROUP
350
D
3
ACAD_MLINESTYLE
350
17
0
DICTIONARY
5
D
100
AcDbDictionary
0
DICTIONARY
5
1A
330
C
100
AcDbDictionary
0
DICTIONARY
5
17
100
AcDbDictionary
0
ENDSEC
0
EOF
